<svg width="718" height="152" viewBox="0 0 718 152" fill="none" xmlns="http://www.w3.org/2000/svg">
<path d="M247.29 117.27C260.9 117.27 271.54 110.46 271.54 96.7298V96.4798C271.54 84.7198 260.77 80.3898 251.25 77.4198C243.58 74.9498 236.52 72.9598 236.52 68.1398V67.8898C236.52 64.1798 239.86 61.4598 245.68 61.4598C250.26 61.4598 255.7 63.1898 261.03 65.9198C262.02 66.4098 262.76 66.6599 264 66.6599C267.46 66.6599 270.19 64.0598 270.19 60.5998C270.19 57.9998 268.71 56.0199 266.6 54.9099C260.29 51.5699 252.99 49.5898 246.06 49.5898C233.07 49.5898 222.79 57.1398 222.79 69.5098V69.7598C222.79 82.2598 233.56 86.2198 243.21 88.9398C250.88 91.2898 257.81 93.0199 257.81 98.0999V98.3499C257.81 102.68 254.1 105.4 247.66 105.4C241.72 105.4 235.16 103.3 228.85 99.0898C227.98 98.5998 226.87 98.2198 225.63 98.2198C222.17 98.2198 219.57 100.94 219.57 104.28C219.57 106.76 220.81 108.61 222.42 109.48C229.96 114.68 239 117.27 247.29 117.27Z" fill="black"/>
<path d="M335.52 83.4901C335.52 96.3601 327.1 104.4 316.83 104.4C306.68 104.4 297.77 95.9801 297.77 83.4901V83.2401C297.77 70.7401 306.68 62.3301 316.83 62.3301C326.98 62.3301 335.52 70.6201 335.52 83.2401V83.4901ZM350.74 83.4901V83.2401C350.74 61.4601 335.77 49.3301 320.42 49.3301C309.78 49.3301 302.97 54.7801 298.14 61.5801V57.5001C298.14 53.2901 294.8 49.9501 290.59 49.9501C286.38 49.9501 283.16 53.2901 283.16 57.5001V129.03C283.16 133.24 286.5 136.45 290.59 136.45C294.8 136.45 298.14 133.23 298.14 129.03V105.89C302.72 111.95 309.53 117.4 320.42 117.4C335.89 117.4 350.74 105.15 350.74 83.4901Z" fill="black"/>
<path d="M463.34 117.15C467.3 117.15 470.39 116.53 473.61 115.42C475.71 114.55 477.57 112.33 477.57 109.6C477.57 106.13 474.6 103.41 471.26 103.41C470.77 103.41 469.28 103.78 467.55 103.78C462.48 103.78 459.51 101.43 459.51 95.6101V63.5601H471.27C474.86 63.5601 477.83 60.7101 477.83 57.1301C477.83 53.5401 474.86 50.7001 471.27 50.7001H459.5V39.5601C459.5 35.4801 456.16 32.1401 452.08 32.1401C447.87 32.1401 444.53 35.4801 444.53 39.5601V50.7001H442.06C438.47 50.7001 435.63 53.5501 435.63 57.1301C435.63 60.7201 438.48 63.5601 442.06 63.5601H444.53V97.9601C444.53 112.32 452.33 117.15 463.34 117.15Z" fill="black"/>
<path d="M488.59 109.23C488.59 113.44 491.93 116.66 496.01 116.66C500.22 116.66 503.56 113.44 503.56 109.23V79.1601C503.56 69.0101 509.62 62.9501 518.29 62.9501C527.2 62.9501 532.27 68.7701 532.27 78.9101V109.23C532.27 113.44 535.61 116.66 539.82 116.66C544.03 116.66 547.25 113.44 547.25 109.23V74.3301C547.25 59.2301 538.71 49.3301 523.98 49.3301C513.83 49.3301 507.77 54.6501 503.56 60.7201V32.5101C503.56 28.4301 500.22 25.0801 496.01 25.0801C491.8 25.0801 488.59 28.4201 488.59 32.5101V109.23Z" fill="black"/>
<path d="M562.46 57.5001C562.46 53.2901 565.68 49.9501 569.88 49.9501C574.09 49.9501 577.43 53.2901 577.43 57.5001V109.23C577.43 113.44 574.09 116.66 569.88 116.66C565.8 116.66 562.46 113.44 562.46 109.23V57.5001ZM561.35 33.8701C561.35 38.3301 565.06 41.3001 569.89 41.3001C574.72 41.3001 578.43 38.3301 578.43 33.8701V33.1301C578.43 28.6701 574.72 25.8301 569.89 25.8301C565.06 25.8301 561.35 28.6801 561.35 33.1301V33.8701Z" fill="black"/>
<path d="M644.39 83.7401C644.39 95.0001 636.72 104.41 624.59 104.41C612.96 104.41 604.67 94.8801 604.67 83.5001V83.2501C604.67 71.8701 612.34 62.4601 624.35 62.4601C636.11 62.4601 644.4 71.9901 644.4 83.5001V83.7401H644.39ZM659.36 83.4901V83.2401C659.36 64.5501 644.63 49.3301 624.59 49.3301C604.54 49.3301 589.69 64.8001 589.69 83.4801V83.7301C589.69 102.29 604.42 117.51 624.34 117.51C644.51 117.52 659.36 102.05 659.36 83.4901Z" fill="black"/>
<path d="M693.27 117.27C706.88 117.27 717.52 110.46 717.52 96.7298V96.4798C717.52 84.7198 706.75 80.3898 697.23 77.4198C689.56 74.9498 682.5 72.9598 682.5 68.1398V67.8898C682.5 64.1798 685.84 61.4598 691.66 61.4598C696.24 61.4598 701.68 63.1898 707 65.9198C707.99 66.4098 708.73 66.6599 709.97 66.6599C713.43 66.6599 716.16 64.0598 716.16 60.5998C716.16 57.9998 714.68 56.0199 712.57 54.9099C706.26 51.5699 698.96 49.5898 692.03 49.5898C679.04 49.5898 668.76 57.1398 668.76 69.5098V69.7598C668.76 82.2598 679.53 86.2198 689.18 88.9398C696.85 91.2898 703.78 93.0199 703.78 98.0999V98.3499C703.78 102.68 700.07 105.4 693.63 105.4C687.69 105.4 681.13 103.3 674.82 99.0898C673.95 98.5998 672.84 98.2198 671.6 98.2198C668.13 98.2198 665.54 100.94 665.54 104.28C665.54 106.76 666.78 108.61 668.39 109.48C675.94 114.68 684.98 117.27 693.27 117.27Z" fill="black"/>
<path d="M373.39 83.4901C373.39 96.3601 381.81 104.4 392.08 104.4C402.23 104.4 411.14 95.9801 411.14 83.4901V83.2401C411.14 70.7401 402.23 62.3301 392.08 62.3301C381.93 62.3301 373.39 70.6201 373.39 83.2401V83.4901ZM358.17 83.4901V83.2401C358.17 61.4601 373.14 49.3301 388.49 49.3301C399.13 49.3301 405.94 54.7801 410.76 61.5801V57.5001C410.76 53.2901 414.1 49.9501 418.31 49.9501C422.52 49.9501 425.74 53.2901 425.74 57.5001V109.23C425.74 113.44 422.4 116.66 418.31 116.66C414.1 116.66 410.76 113.44 410.76 109.23V105.89C406.18 111.95 399.37 117.4 388.49 117.4C373.02 117.4 358.17 105.15 358.17 83.4901Z" fill="black"/>
<path d="M32.82 96.25C28.11 96.25 24.27 92.41 24.27 87.7V18.54C24.27 11.1 29.2 0.0200195 42.79 0.0200195H146.46C147.89 0.0200195 160.66 0.320025 169.38 10.69L184.76 28.97C186.23 30.72 186.93 32.93 186.73 35.21C186.53 37.49 185.46 39.55 183.72 41.02C181.97 42.49 179.77 43.19 177.48 43C175.2 42.8 173.14 41.74 171.67 39.99L156.29 21.7C152.6 17.31 146.41 17.12 146.35 17.12L43.98 17.14C42.55 17.16 41.41 18.3 41.39 19.74L41.37 20.93V87.7C41.37 92.41 37.53 96.25 32.82 96.25ZM144.86 151.96H41.19C39.76 151.96 26.99 151.66 18.26 141.28L2.87997 123C1.40997 121.25 0.709979 119.03 0.909979 116.76C1.10998 114.48 2.17998 112.42 3.92998 110.95C7.52998 107.92 12.94 108.38 15.98 111.99L31.37 130.28C35.04 134.64 41.25 134.86 41.31 134.86L143.68 134.84C145.11 134.82 146.25 133.68 146.27 132.24L146.29 131.3V64.28C146.29 59.56 150.13 55.73 154.84 55.73C159.55 55.73 163.39 59.57 163.39 64.28V133.44C163.37 140.88 158.44 151.96 144.86 151.96Z" fill="#FF5A00"/>
</svg>
